# Blender 3.5.1
# www.blender.org
mtllib background01.mtl
o Cube.001
v 8.791203 -5.795081 0.999999
v 12.773558 4.413447 1.000000
v 8.791203 -5.795081 -1.000001
v 12.773558 4.413447 -0.999999
v 10.791203 -5.795081 0.999999
v 14.773558 4.413447 1.000000
v 10.791203 -5.795081 -1.000001
v 14.773558 4.413447 -0.999999
v 12.773558 9.045982 0.408863
v 12.773558 9.045982 -0.408862
v 14.773558 9.045982 -0.408862
v 14.773558 9.045982 0.408863
v 8.791203 -5.795081 -9.000006
v 12.773558 4.413447 -9.000004
v 8.791203 -5.795081 -11.000006
v 12.773558 4.413447 -11.000004
v 10.791203 -5.795081 -9.000006
v 14.773558 4.413447 -9.000004
v 10.791203 -5.795081 -11.000006
v 14.773558 4.413447 -11.000004
v 12.773558 9.045982 -9.591142
v 12.773558 9.045982 -10.408867
v 14.773558 9.045982 -10.408867
v 14.773558 9.045982 -9.591142
v 8.791203 -5.795081 -19.000010
v 12.773558 4.413447 -19.000010
v 8.791203 -5.795081 -21.000010
v 12.773558 4.413447 -21.000010
v 10.791203 -5.795081 -19.000010
v 14.773558 4.413447 -19.000010
v 10.791203 -5.795081 -21.000010
v 14.773558 4.413447 -21.000010
v 12.773558 9.045982 -19.591146
v 12.773558 9.045982 -20.408871
v 14.773558 9.045982 -20.408871
v 14.773558 9.045982 -19.591146
v 8.791203 -5.795081 -29.000015
v 12.773558 4.413447 -29.000015
v 8.791203 -5.795081 -31.000015
v 12.773558 4.413447 -31.000015
v 10.791203 -5.795081 -29.000015
v 14.773558 4.413447 -29.000015
v 10.791203 -5.795081 -31.000015
v 14.773558 4.413447 -31.000015
v 12.773558 9.045982 -29.591152
v 12.773558 9.045982 -30.408876
v 14.773558 9.045982 -30.408876
v 14.773558 9.045982 -29.591152
v 8.791203 -5.795081 -39.000019
v 12.773558 4.413447 -39.000019
v 8.791203 -5.795081 -41.000019
v 12.773558 4.413447 -41.000019
v 10.791203 -5.795081 -39.000019
v 14.773558 4.413447 -39.000019
v 10.791203 -5.795081 -41.000019
v 14.773558 4.413447 -41.000019
v 12.773558 9.045982 -39.591156
v 12.773558 9.045982 -40.408882
v 14.773558 9.045982 -40.408882
v 14.773558 9.045982 -39.591156
v 8.791203 -5.795081 -49.000023
v 12.773558 4.413447 -49.000023
v 8.791203 -5.795081 -51.000023
v 12.773558 4.413447 -51.000023
v 10.791203 -5.795081 -49.000023
v 14.773558 4.413447 -49.000023
v 10.791203 -5.795081 -51.000023
v 14.773558 4.413447 -51.000023
v 12.773558 9.045982 -49.591160
v 12.773558 9.045982 -50.408886
v 14.773558 9.045982 -50.408886
v 14.773558 9.045982 -49.591160
v 8.791203 -5.795081 -59.000027
v 12.773558 4.413447 -59.000027
v 8.791203 -5.795081 -61.000027
v 12.773558 4.413447 -61.000027
v 10.791203 -5.795081 -59.000027
v 14.773558 4.413447 -59.000027
v 10.791203 -5.795081 -61.000027
v 14.773558 4.413447 -61.000027
v 12.773558 9.045982 -59.591164
v 12.773558 9.045982 -60.408890
v 14.773558 9.045982 -60.408890
v 14.773558 9.045982 -59.591164
v -8.791203 -5.795081 0.999999
v -12.773558 4.413447 1.000000
v -8.791203 -5.795081 -1.000001
v -12.773558 4.413447 -0.999999
v -10.791203 -5.795081 0.999999
v -14.773558 4.413447 1.000000
v -10.791203 -5.795081 -1.000001
v -14.773558 4.413447 -0.999999
v -12.773558 9.045982 0.408863
v -12.773558 9.045982 -0.408862
v -14.773558 9.045982 -0.408862
v -14.773558 9.045982 0.408863
v -8.791203 -5.795081 -9.000006
v -12.773558 4.413447 -9.000004
v -8.791203 -5.795081 -11.000006
v -12.773558 4.413447 -11.000004
v -10.791203 -5.795081 -9.000006
v -14.773558 4.413447 -9.000004
v -10.791203 -5.795081 -11.000006
v -14.773558 4.413447 -11.000004
v -12.773558 9.045982 -9.591142
v -12.773558 9.045982 -10.408867
v -14.773558 9.045982 -10.408867
v -14.773558 9.045982 -9.591142
v -8.791203 -5.795081 -19.000010
v -12.773558 4.413447 -19.000010
v -8.791203 -5.795081 -21.000010
v -12.773558 4.413447 -21.000010
v -10.791203 -5.795081 -19.000010
v -14.773558 4.413447 -19.000010
v -10.791203 -5.795081 -21.000010
v -14.773558 4.413447 -21.000010
v -12.773558 9.045982 -19.591146
v -12.773558 9.045982 -20.408871
v -14.773558 9.045982 -20.408871
v -14.773558 9.045982 -19.591146
v -8.791203 -5.795081 -29.000015
v -12.773558 4.413447 -29.000015
v -8.791203 -5.795081 -31.000015
v -12.773558 4.413447 -31.000015
v -10.791203 -5.795081 -29.000015
v -14.773558 4.413447 -29.000015
v -10.791203 -5.795081 -31.000015
v -14.773558 4.413447 -31.000015
v -12.773558 9.045982 -29.591152
v -12.773558 9.045982 -30.408876
v -14.773558 9.045982 -30.408876
v -14.773558 9.045982 -29.591152
v -8.791203 -5.795081 -39.000019
v -12.773558 4.413447 -39.000019
v -8.791203 -5.795081 -41.000019
v -12.773558 4.413447 -41.000019
v -10.791203 -5.795081 -39.000019
v -14.773558 4.413447 -39.000019
v -10.791203 -5.795081 -41.000019
v -14.773558 4.413447 -41.000019
v -12.773558 9.045982 -39.591156
v -12.773558 9.045982 -40.408882
v -14.773558 9.045982 -40.408882
v -14.773558 9.045982 -39.591156
v -8.791203 -5.795081 -49.000023
v -12.773558 4.413447 -49.000023
v -8.791203 -5.795081 -51.000023
v -12.773558 4.413447 -51.000023
v -10.791203 -5.795081 -49.000023
v -14.773558 4.413447 -49.000023
v -10.791203 -5.795081 -51.000023
v -14.773558 4.413447 -51.000023
v -12.773558 9.045982 -49.591160
v -12.773558 9.045982 -50.408886
v -14.773558 9.045982 -50.408886
v -14.773558 9.045982 -49.591160
v -8.791203 -5.795081 -59.000027
v -12.773558 4.413447 -59.000027
v -8.791203 -5.795081 -61.000027
v -12.773558 4.413447 -61.000027
v -10.791203 -5.795081 -59.000027
v -14.773558 4.413447 -59.000027
v -10.791203 -5.795081 -61.000027
v -14.773558 4.413447 -61.000027
v -12.773558 9.045982 -59.591164
v -12.773558 9.045982 -60.408890
v -14.773558 9.045982 -60.408890
v -14.773558 9.045982 -59.591164
v 5.748417 -6.223549 0.000000
v 5.748417 -6.223549 -70.050392
v 6.679406 -5.269652 -70.050392
v 6.679406 -5.269652 0.000000
v 9.314232 -5.269652 0.000000
v 12.982244 3.942248 0.000000
v 9.314232 -5.269652 -70.050392
v 12.982244 3.942248 -70.050392
v 0.000000 -6.223549 -70.050392
v 0.000000 -6.223549 0.000000
v 10.978106 -2.238751 0.000000
v 11.373726 -1.245182 0.000000
v 11.373726 -1.245182 -70.050392
v 10.978106 -2.238751 -70.050392
v 10.244503 -4.081131 0.000000
v 10.640123 -3.087562 0.000000
v 10.640123 -3.087562 -70.050392
v 10.244503 -4.081131 -70.050392
v 12.446453 2.596653 -70.050392
v 12.050831 1.603083 -70.050392
v 11.712851 0.754273 -70.050392
v 11.317228 -0.239297 -70.050392
v 10.979248 -1.088107 -70.050392
v 10.583626 -2.081677 -70.050392
v 10.245646 -2.930487 -70.050392
v 9.850023 -3.924057 -70.050392
v 12.050831 1.603083 0.000000
v 12.446453 2.596653 0.000000
v 11.317228 -0.239297 0.000000
v 11.712851 0.754273 0.000000
v 10.583626 -2.081677 0.000000
v 10.979248 -1.088107 0.000000
v 9.850023 -3.924057 0.000000
v 10.245646 -2.930487 0.000000
v 11.711708 -0.396371 -70.050392
v 12.107329 0.597198 -70.050392
v 12.107329 0.597198 0.000000
v 11.711708 -0.396371 0.000000
v 12.445310 1.446008 -70.050392
v 12.840932 2.439578 -70.050392
v 12.840932 2.439578 0.000000
v 12.445310 1.446008 0.000000
v 29.670792 3.942248 0.000000
v 29.670792 3.942248 -70.050392
v -5.748417 -6.223549 0.000000
v -5.748417 -6.223549 -70.050392
v -6.679406 -5.269652 -70.050392
v -6.679406 -5.269652 0.000000
v -9.314232 -5.269652 0.000000
v -12.982244 3.942248 0.000000
v -9.314232 -5.269652 -70.050392
v -12.982244 3.942248 -70.050392
v -10.978106 -2.238751 0.000000
v -11.373726 -1.245182 0.000000
v -11.373726 -1.245182 -70.050392
v -10.978106 -2.238751 -70.050392
v -10.244503 -4.081131 0.000000
v -10.640123 -3.087562 0.000000
v -10.640123 -3.087562 -70.050392
v -10.244503 -4.081131 -70.050392
v -12.446453 2.596653 -70.050392
v -12.050831 1.603083 -70.050392
v -11.712851 0.754273 -70.050392
v -11.317228 -0.239297 -70.050392
v -10.979248 -1.088107 -70.050392
v -10.583626 -2.081677 -70.050392
v -10.245646 -2.930487 -70.050392
v -9.850023 -3.924057 -70.050392
v -12.050831 1.603083 0.000000
v -12.446453 2.596653 0.000000
v -11.317228 -0.239297 0.000000
v -11.712851 0.754273 0.000000
v -10.583626 -2.081677 0.000000
v -10.979248 -1.088107 0.000000
v -9.850023 -3.924057 0.000000
v -10.245646 -2.930487 0.000000
v -11.711708 -0.396371 -70.050392
v -12.107329 0.597198 -70.050392
v -12.107329 0.597198 0.000000
v -11.711708 -0.396371 0.000000
v -12.445310 1.446008 -70.050392
v -12.840932 2.439578 -70.050392
v -12.840932 2.439578 0.000000
v -12.445310 1.446008 0.000000
v -29.670792 3.942248 0.000000
v -29.670792 3.942248 -70.050392
vn -0.9316 0.3634 -0.0000
vn -0.0000 -0.0000 -1.0000
vn 0.9316 -0.3634 -0.0000
vn -0.0000 -0.0000 1.0000
vn -0.0000 -1.0000 -0.0000
vn -0.0000 0.1266 -0.9920
vn -0.0000 1.0000 -0.0000
vn 1.0000 -0.0000 -0.0000
vn -1.0000 -0.0000 -0.0000
vn -0.0000 0.1266 0.9920
vn 0.9316 0.3634 -0.0000
vn -0.9316 -0.3634 -0.0000
vn 0.9291 -0.3699 -0.0000
vn 0.7156 -0.6985 -0.0000
vn -0.3699 -0.9291 -0.0000
vn 0.3699 0.9291 -0.0000
vn -0.9291 -0.3699 -0.0000
vn -0.7156 -0.6985 -0.0000
vn 0.3699 -0.9291 -0.0000
vn -0.3699 0.9291 -0.0000
s 0
f 2//1 3//1 1//1
f 4//2 7//2 3//2
f 8//3 5//3 7//3
f 5//4 2//4 1//4
f 7//5 1//5 3//5
f 4//6 11//6 8//6
f 10//7 12//7 11//7
f 8//8 12//8 6//8
f 2//9 10//9 4//9
f 6//10 9//10 2//10
f 14//1 15//1 13//1
f 16//2 19//2 15//2
f 20//3 17//3 19//3
f 17//4 14//4 13//4
f 19//5 13//5 15//5
f 16//6 23//6 20//6
f 22//7 24//7 23//7
f 20//8 24//8 18//8
f 16//9 21//9 22//9
f 18//10 21//10 14//10
f 26//1 27//1 25//1
f 28//2 31//2 27//2
f 32//3 29//3 31//3
f 29//4 26//4 25//4
f 31//5 25//5 27//5
f 28//6 35//6 32//6
f 34//7 36//7 35//7
f 30//8 35//8 36//8
f 26//9 34//9 28//9
f 30//10 33//10 26//10
f 38//1 39//1 37//1
f 40//2 43//2 39//2
f 44//3 41//3 43//3
f 41//4 38//4 37//4
f 43//5 37//5 39//5
f 40//6 47//6 44//6
f 46//7 48//7 47//7
f 42//8 47//8 48//8
f 38//9 46//9 40//9
f 42//10 45//10 38//10
f 50//1 51//1 49//1
f 52//2 55//2 51//2
f 56//3 53//3 55//3
f 53//4 50//4 49//4
f 55//5 49//5 51//5
f 52//6 59//6 56//6
f 58//7 60//7 59//7
f 56//8 60//8 54//8
f 50//9 58//9 52//9
f 54//10 57//10 50//10
f 62//1 63//1 61//1
f 64//2 67//2 63//2
f 68//3 65//3 67//3
f 65//4 62//4 61//4
f 67//5 61//5 63//5
f 64//6 71//6 68//6
f 70//7 72//7 71//7
f 68//8 72//8 66//8
f 62//9 70//9 64//9
f 66//10 69//10 62//10
f 74//1 75//1 73//1
f 76//2 79//2 75//2
f 80//3 77//3 79//3
f 77//4 74//4 73//4
f 79//5 73//5 75//5
f 76//6 83//6 80//6
f 82//7 84//7 83//7
f 80//8 84//8 78//8
f 74//9 82//9 76//9
f 78//10 81//10 74//10
f 85//11 88//11 86//11
f 91//2 88//2 87//2
f 89//12 92//12 91//12
f 89//4 86//4 90//4
f 85//5 91//5 87//5
f 95//6 88//6 92//6
f 96//7 94//7 95//7
f 96//9 92//9 90//9
f 94//8 86//8 88//8
f 93//10 90//10 86//10
f 99//11 98//11 97//11
f 103//2 100//2 99//2
f 101//12 104//12 103//12
f 101//4 98//4 102//4
f 97//5 103//5 99//5
f 107//6 100//6 104//6
f 108//7 106//7 107//7
f 108//9 104//9 102//9
f 100//8 105//8 98//8
f 105//10 102//10 98//10
f 111//11 110//11 109//11
f 115//2 112//2 111//2
f 113//12 116//12 115//12
f 113//4 110//4 114//4
f 109//5 115//5 111//5
f 119//6 112//6 116//6
f 120//7 118//7 119//7
f 114//9 119//9 116//9
f 118//8 110//8 112//8
f 117//10 114//10 110//10
f 123//11 122//11 121//11
f 127//2 124//2 123//2
f 125//12 128//12 127//12
f 125//4 122//4 126//4
f 121//5 127//5 123//5
f 131//6 124//6 128//6
f 132//7 130//7 131//7
f 126//9 131//9 128//9
f 130//8 122//8 124//8
f 129//10 126//10 122//10
f 135//11 134//11 133//11
f 139//2 136//2 135//2
f 137//12 140//12 139//12
f 137//4 134//4 138//4
f 133//5 139//5 135//5
f 143//6 136//6 140//6
f 144//7 142//7 143//7
f 144//9 140//9 138//9
f 142//8 134//8 136//8
f 141//10 138//10 134//10
f 147//11 146//11 145//11
f 151//2 148//2 147//2
f 149//12 152//12 151//12
f 149//4 146//4 150//4
f 145//5 151//5 147//5
f 155//6 148//6 152//6
f 156//7 154//7 155//7
f 156//9 152//9 150//9
f 154//8 146//8 148//8
f 153//10 150//10 146//10
f 159//11 158//11 157//11
f 163//2 160//2 159//2
f 161//12 164//12 163//12
f 161//4 158//4 162//4
f 157//5 163//5 159//5
f 167//6 160//6 164//6
f 168//7 166//7 167//7
f 168//9 164//9 162//9
f 166//8 158//8 160//8
f 165//10 162//10 158//10
f 170//5 178//5 177//5
f 188//13 198//13 189//13
f 175//5 172//5 171//5
f 172//14 170//14 171//14
f 184//13 186//13 185//13
f 194//13 173//13 175//13
f 192//13 202//13 193//13
f 190//13 200//13 191//13
f 188//15 210//15 195//15
f 192//15 179//15 199//15
f 176//13 196//13 187//13
f 180//13 182//13 181//13
f 205//13 203//13 204//13
f 209//13 207//13 208//13
f 202//16 185//16 193//16
f 198//16 204//16 189//16
f 194//15 183//15 201//15
f 190//15 206//15 197//15
f 200//16 181//16 191//16
f 196//16 208//16 187//16
f 176//5 211//5 174//5
f 178//5 214//5 177//5
f 240//17 230//17 231//17
f 216//5 219//5 215//5
f 214//18 216//18 215//18
f 228//17 226//17 227//17
f 217//17 236//17 219//17
f 244//17 234//17 235//17
f 242//17 232//17 233//17
f 252//19 230//19 237//19
f 221//19 234//19 241//19
f 238//17 220//17 229//17
f 224//17 222//17 223//17
f 245//17 247//17 246//17
f 249//17 251//17 250//17
f 227//20 244//20 235//20
f 246//20 240//20 231//20
f 225//19 236//19 243//19
f 248//19 232//19 239//19
f 223//20 242//20 233//20
f 250//20 238//20 229//20
f 253//5 220//5 218//5
f 2//1 4//1 3//1
f 4//2 8//2 7//2
f 8//3 6//3 5//3
f 5//4 6//4 2//4
f 7//5 5//5 1//5
f 4//6 10//6 11//6
f 10//7 9//7 12//7
f 8//8 11//8 12//8
f 2//9 9//9 10//9
f 6//10 12//10 9//10
f 14//1 16//1 15//1
f 16//2 20//2 19//2
f 20//3 18//3 17//3
f 17//4 18//4 14//4
f 19//5 17//5 13//5
f 16//6 22//6 23//6
f 22//7 21//7 24//7
f 20//8 23//8 24//8
f 16//9 14//9 21//9
f 18//10 24//10 21//10
f 26//1 28//1 27//1
f 28//2 32//2 31//2
f 32//3 30//3 29//3
f 29//4 30//4 26//4
f 31//5 29//5 25//5
f 28//6 34//6 35//6
f 34//7 33//7 36//7
f 30//8 32//8 35//8
f 26//9 33//9 34//9
f 30//10 36//10 33//10
f 38//1 40//1 39//1
f 40//2 44//2 43//2
f 44//3 42//3 41//3
f 41//4 42//4 38//4
f 43//5 41//5 37//5
f 40//6 46//6 47//6
f 46//7 45//7 48//7
f 42//8 44//8 47//8
f 38//9 45//9 46//9
f 42//10 48//10 45//10
f 50//1 52//1 51//1
f 52//2 56//2 55//2
f 56//3 54//3 53//3
f 53//4 54//4 50//4
f 55//5 53//5 49//5
f 52//6 58//6 59//6
f 58//7 57//7 60//7
f 56//8 59//8 60//8
f 50//9 57//9 58//9
f 54//10 60//10 57//10
f 62//1 64//1 63//1
f 64//2 68//2 67//2
f 68//3 66//3 65//3
f 65//4 66//4 62//4
f 67//5 65//5 61//5
f 64//6 70//6 71//6
f 70//7 69//7 72//7
f 68//8 71//8 72//8
f 62//9 69//9 70//9
f 66//10 72//10 69//10
f 74//1 76//1 75//1
f 76//2 80//2 79//2
f 80//3 78//3 77//3
f 77//4 78//4 74//4
f 79//5 77//5 73//5
f 76//6 82//6 83//6
f 82//7 81//7 84//7
f 80//8 83//8 84//8
f 74//9 81//9 82//9
f 78//10 84//10 81//10
f 85//11 87//11 88//11
f 91//2 92//2 88//2
f 89//12 90//12 92//12
f 89//4 85//4 86//4
f 85//5 89//5 91//5
f 95//6 94//6 88//6
f 96//7 93//7 94//7
f 96//9 95//9 92//9
f 94//8 93//8 86//8
f 93//10 96//10 90//10
f 99//11 100//11 98//11
f 103//2 104//2 100//2
f 101//12 102//12 104//12
f 101//4 97//4 98//4
f 97//5 101//5 103//5
f 107//6 106//6 100//6
f 108//7 105//7 106//7
f 108//9 107//9 104//9
f 100//8 106//8 105//8
f 105//10 108//10 102//10
f 111//11 112//11 110//11
f 115//2 116//2 112//2
f 113//12 114//12 116//12
f 113//4 109//4 110//4
f 109//5 113//5 115//5
f 119//6 118//6 112//6
f 120//7 117//7 118//7
f 114//9 120//9 119//9
f 118//8 117//8 110//8
f 117//10 120//10 114//10
f 123//11 124//11 122//11
f 127//2 128//2 124//2
f 125//12 126//12 128//12
f 125//4 121//4 122//4
f 121//5 125//5 127//5
f 131//6 130//6 124//6
f 132//7 129//7 130//7
f 126//9 132//9 131//9
f 130//8 129//8 122//8
f 129//10 132//10 126//10
f 135//11 136//11 134//11
f 139//2 140//2 136//2
f 137//12 138//12 140//12
f 137//4 133//4 134//4
f 133//5 137//5 139//5
f 143//6 142//6 136//6
f 144//7 141//7 142//7
f 144//9 143//9 140//9
f 142//8 141//8 134//8
f 141//10 144//10 138//10
f 147//11 148//11 146//11
f 151//2 152//2 148//2
f 149//12 150//12 152//12
f 149//4 145//4 146//4
f 145//5 149//5 151//5
f 155//6 154//6 148//6
f 156//7 153//7 154//7
f 156//9 155//9 152//9
f 154//8 153//8 146//8
f 153//10 156//10 150//10
f 159//11 160//11 158//11
f 163//2 164//2 160//2
f 161//12 162//12 164//12
f 161//4 157//4 158//4
f 157//5 161//5 163//5
f 167//6 166//6 160//6
f 168//7 165//7 166//7
f 168//9 167//9 164//9
f 166//8 165//8 158//8
f 165//10 168//10 162//10
f 170//5 169//5 178//5
f 188//13 195//13 198//13
f 175//5 173//5 172//5
f 172//14 169//14 170//14
f 184//13 183//13 186//13
f 194//13 201//13 173//13
f 192//13 199//13 202//13
f 190//13 197//13 200//13
f 188//15 207//15 210//15
f 192//15 182//15 179//15
f 176//13 174//13 196//13
f 180//13 179//13 182//13
f 205//13 206//13 203//13
f 209//13 210//13 207//13
f 202//16 184//16 185//16
f 198//16 205//16 204//16
f 194//15 186//15 183//15
f 190//15 203//15 206//15
f 200//16 180//16 181//16
f 196//16 209//16 208//16
f 176//5 212//5 211//5
f 178//5 213//5 214//5
f 240//17 237//17 230//17
f 216//5 217//5 219//5
f 214//18 213//18 216//18
f 228//17 225//17 226//17
f 217//17 243//17 236//17
f 244//17 241//17 234//17
f 242//17 239//17 232//17
f 252//19 249//19 230//19
f 221//19 224//19 234//19
f 238//17 218//17 220//17
f 224//17 221//17 222//17
f 245//17 248//17 247//17
f 249//17 252//17 251//17
f 227//20 226//20 244//20
f 246//20 247//20 240//20
f 225//19 228//19 236//19
f 248//19 245//19 232//19
f 223//20 222//20 242//20
f 250//20 251//20 238//20
f 253//5 254//5 220//5
