# Blender v2.80 (sub 75) OBJ File: 'Heart.blend'
# www.blender.org
o Cylinder.001_Cylinder.003
v 0.161169 -0.181219 0.440000
v -0.157659 -0.181219 0.440000
v 0.161169 1.033345 0.440000
v -0.157659 1.033345 0.440000
v 0.161169 1.210714 1.031128
v -0.157659 1.210714 1.031128
v 0.161169 0.556134 1.271832
v -0.157659 0.556134 1.271832
v 0.161169 0.210643 0.918870
v -0.157659 0.210643 0.918870
v -0.157659 1.246482 0.737235
v 0.161169 1.246482 0.737235
v 0.161169 0.883424 1.314251
v -0.157659 0.883424 1.314251
v -0.157659 1.210715 -0.151128
v 0.161169 1.210715 -0.151128
v -0.157659 0.556134 -0.391832
v 0.161169 0.556134 -0.391832
v -0.157659 0.210643 -0.038870
v 0.161169 0.210643 -0.038870
v 0.161169 1.246482 0.142765
v -0.157659 1.246482 0.142765
v -0.157659 0.883424 -0.434251
v 0.161169 0.883424 -0.434251
v 0.261169 -0.087539 0.440000
v 0.261169 1.005569 0.440000
v 0.261169 0.870639 1.226826
v 0.261169 0.576078 1.188649
v 0.261169 0.265136 0.870983
v 0.261169 1.197391 0.707512
v 0.261169 1.165201 0.972015
v 0.261169 1.197391 0.172489
v 0.261169 0.870639 -0.346826
v 0.261169 1.165201 -0.092015
v 0.261169 0.265136 0.009017
v 0.261169 0.576078 -0.308649
v -0.261826 1.005569 0.440000
v -0.261826 -0.087539 0.440000
v -0.261826 1.197391 0.707512
v -0.261826 0.870639 1.226826
v -0.261826 1.165201 0.972015
v -0.261826 0.265136 0.870983
v -0.261826 0.576078 1.188649
v -0.261826 1.197391 0.172489
v -0.261826 0.870639 -0.346826
v -0.261826 0.576078 -0.308649
v -0.261826 0.265136 0.009017
v -0.261826 1.165201 -0.092015
v 0.440328 0.208220 0.440000
v 0.440328 0.917873 0.440000
v 0.440328 0.830276 0.950812
v 0.440328 0.639045 0.926028
v 0.440328 0.437179 0.719797
v 0.440328 1.042405 0.613670
v 0.440328 1.021507 0.785388
v 0.440328 1.042406 0.266330
v 0.440328 0.830276 -0.070812
v 0.440328 1.021507 0.094613
v 0.440328 0.437180 0.160203
v 0.440328 0.639045 -0.046028
v 0.571800 0.755577 0.440000
v -0.442962 0.208220 0.440000
v -0.442962 0.917873 0.440000
v -0.442962 0.830276 -0.070812
v -0.442962 0.639045 -0.046027
v -0.442962 0.437179 0.160203
v -0.442962 1.042405 0.266330
v -0.442962 1.021507 0.094613
v -0.442962 1.042405 0.613670
v -0.442962 0.830276 0.950812
v -0.442962 1.021507 0.785388
v -0.442962 0.437180 0.719797
v -0.442962 0.639045 0.926028
v -0.574434 0.755577 0.440000
vn 0.0000 0.0000 -1.0000
vn -0.4488 0.8871 0.1080
vn 0.0000 -0.7739 0.6333
vn 0.0000 -0.1285 0.9917
vn 0.4636 0.8796 0.1070
vn 0.0000 -0.7146 0.6995
vn 0.0000 0.9927 0.1208
vn 0.0000 0.8127 -0.5827
vn 0.0000 0.6542 0.7563
vn 0.4636 0.8796 -0.1070
vn 0.0000 -0.7739 -0.6333
vn 0.0000 -0.1285 -0.9917
vn -0.5713 -0.6352 -0.5198
vn -0.0000 -0.7146 -0.6995
vn -0.0000 0.9927 -0.1208
vn -0.0000 0.6542 -0.7563
vn 0.0000 0.8127 0.5827
vn 0.6779 0.7298 0.0888
vn 0.3696 0.7551 0.5415
vn 0.2202 0.7927 0.5684
vn 0.5866 -0.5787 0.5665
vn 0.6479 -0.0979 -0.7554
vn 0.5973 0.5247 0.6065
vn 0.5973 0.5247 -0.6065
vn 0.5870 -0.6266 0.5127
vn 0.2202 0.7927 -0.5684
vn 0.6479 -0.0979 0.7554
vn 0.5870 -0.6266 -0.5127
vn 0.5866 -0.5787 -0.5665
vn -1.0000 0.0000 0.0000
vn -0.2118 0.7942 0.5695
vn -0.5713 -0.6352 0.5198
vn -0.6325 -0.0996 0.7682
vn -0.4488 0.8871 -0.1080
vn -0.5709 -0.5867 0.5743
vn -0.5816 0.5322 -0.6152
vn -0.5816 0.5322 0.6152
vn -0.6325 -0.0996 -0.7682
vn -0.2118 0.7942 -0.5695
vn -0.5709 -0.5867 -0.5743
vn 0.8319 -0.0713 -0.5504
vn 0.8319 -0.0713 0.5504
vn 0.7954 0.3965 -0.4583
vn 0.3696 0.7551 -0.5415
vn 0.7875 -0.4770 -0.3903
vn 0.7875 -0.4770 0.3903
vn 0.7872 -0.4407 -0.4314
vn 0.7954 0.3965 0.4583
vn 0.7872 -0.4407 0.4314
vn 0.6779 0.7298 -0.0888
vn 0.7082 0.5737 -0.4114
vn 0.9573 0.1892 -0.2187
vn 0.9551 -0.2294 -0.1877
vn 0.9551 -0.2294 0.1877
vn 0.9550 -0.2120 -0.2075
vn 0.9573 0.1892 0.2187
vn 0.9550 -0.2120 0.2075
vn 0.9187 0.3922 -0.0477
vn 0.7082 0.5737 0.4114
vn 0.9187 0.3922 0.0477
vn 0.9667 -0.0329 -0.2536
vn 0.9667 -0.0329 0.2536
vn -0.6738 0.7335 -0.0893
vn -0.3661 0.7562 -0.5423
vn -0.8290 -0.0719 0.5546
vn -0.8290 -0.0719 -0.5546
vn -0.6738 0.7335 0.0893
vn -0.3661 0.7562 0.5423
vn -0.7842 -0.4803 0.3930
vn -0.7842 -0.4803 -0.3930
vn -0.7839 -0.4437 0.4343
vn -0.7922 0.3992 -0.4615
vn -0.7839 -0.4437 -0.4343
vn -0.7922 0.3992 0.4615
vn -0.7082 0.5737 0.4114
vn -0.9573 0.1892 0.2187
vn -0.9551 -0.2294 0.1877
vn -0.9551 -0.2294 -0.1877
vn -0.9550 -0.2120 0.2075
vn -0.9573 0.1892 -0.2187
vn -0.9550 -0.2120 -0.2075
vn -0.9187 0.3922 0.0477
vn -0.7082 0.5737 -0.4114
vn -0.9187 0.3922 -0.0477
vn -0.9667 -0.0329 0.2536
vn -0.9667 -0.0329 -0.2536
s off
f 2//1 3//1 1//1
f 11//2 41//2 6//2
f 9//3 2//3 1//3
f 14//4 7//4 13//4
f 12//5 31//5 30//5
f 8//6 9//6 7//6
f 11//7 5//7 12//7
f 4//8 12//8 3//8
f 6//9 13//9 5//9
f 21//10 34//10 16//10
f 19//11 1//11 2//11
f 24//12 17//12 23//12
f 19//13 38//13 47//13
f 18//14 19//14 17//14
f 21//15 15//15 22//15
f 16//16 23//16 15//16
f 3//17 22//17 4//17
f 30//18 55//18 54//18
f 26//19 56//19 32//19
f 3//20 32//20 21//20
f 9//21 28//21 7//21
f 18//22 33//22 36//22
f 5//23 27//23 31//23
f 16//24 33//24 24//24
f 9//25 25//25 29//25
f 3//26 30//26 26//26
f 7//27 27//27 13//27
f 20//28 25//28 1//28
f 20//29 36//29 35//29
f 43//30 40//30 41//30
f 37//30 48//30 46//30
f 4//31 44//31 37//31
f 10//32 38//32 2//32
f 8//33 40//33 43//33
f 22//34 48//34 44//34
f 10//35 43//35 42//35
f 15//36 45//36 48//36
f 6//37 40//37 14//37
f 17//38 45//38 23//38
f 4//39 39//39 11//39
f 19//40 46//40 17//40
f 36//41 57//41 60//41
f 28//42 51//42 27//42
f 34//43 57//43 33//43
f 26//44 54//44 50//44
f 35//45 49//45 25//45
f 29//46 49//46 53//46
f 35//47 60//47 59//47
f 31//48 51//48 55//48
f 29//49 52//49 28//49
f 32//50 58//50 34//50
f 50//51 54//51 61//51
f 57//52 58//52 61//52
f 49//53 59//53 61//53
f 53//54 49//54 61//54
f 59//55 60//55 61//55
f 55//56 51//56 61//56
f 52//57 53//57 61//57
f 58//58 56//58 61//58
f 56//59 50//59 61//59
f 54//60 55//60 61//60
f 60//61 57//61 61//61
f 51//62 52//62 61//62
f 44//63 68//63 67//63
f 37//64 69//64 39//64
f 43//65 70//65 73//65
f 46//66 64//66 45//66
f 39//67 71//67 41//67
f 37//68 67//68 63//68
f 42//69 62//69 38//69
f 47//70 62//70 66//70
f 42//71 73//71 72//71
f 48//72 64//72 68//72
f 47//73 65//73 46//73
f 41//74 70//74 40//74
f 63//75 67//75 74//75
f 70//76 71//76 74//76
f 62//77 72//77 74//77
f 66//78 62//78 74//78
f 72//79 73//79 74//79
f 68//80 64//80 74//80
f 65//81 66//81 74//81
f 71//82 69//82 74//82
f 69//83 63//83 74//83
f 67//84 68//84 74//84
f 73//85 70//85 74//85
f 64//86 65//86 74//86
f 2//1 4//1 3//1
f 11//2 39//2 41//2
f 9//3 10//3 2//3
f 14//4 8//4 7//4
f 12//5 5//5 31//5
f 8//6 10//6 9//6
f 11//7 6//7 5//7
f 4//8 11//8 12//8
f 6//9 14//9 13//9
f 21//10 32//10 34//10
f 19//11 20//11 1//11
f 24//12 18//12 17//12
f 19//13 2//13 38//13
f 18//14 20//14 19//14
f 21//15 16//15 15//15
f 16//16 24//16 23//16
f 3//17 21//17 22//17
f 30//18 31//18 55//18
f 26//19 50//19 56//19
f 3//20 26//20 32//20
f 9//21 29//21 28//21
f 18//22 24//22 33//22
f 5//23 13//23 27//23
f 16//24 34//24 33//24
f 9//25 1//25 25//25
f 3//26 12//26 30//26
f 7//27 28//27 27//27
f 20//28 35//28 25//28
f 20//29 18//29 36//29
f 39//30 37//30 41//30
f 37//30 38//30 42//30
f 42//30 43//30 37//30
f 37//30 43//30 41//30
f 47//30 38//30 37//30
f 37//30 44//30 48//30
f 48//30 45//30 46//30
f 46//30 47//30 37//30
f 4//31 22//31 44//31
f 10//32 42//32 38//32
f 8//33 14//33 40//33
f 22//34 15//34 48//34
f 10//35 8//35 43//35
f 15//36 23//36 45//36
f 6//37 41//37 40//37
f 17//38 46//38 45//38
f 4//39 37//39 39//39
f 19//40 47//40 46//40
f 36//41 33//41 57//41
f 28//42 52//42 51//42
f 34//43 58//43 57//43
f 26//44 30//44 54//44
f 35//45 59//45 49//45
f 29//46 25//46 49//46
f 35//47 36//47 60//47
f 31//48 27//48 51//48
f 29//49 53//49 52//49
f 32//50 56//50 58//50
f 44//63 48//63 68//63
f 37//64 63//64 69//64
f 43//65 40//65 70//65
f 46//66 65//66 64//66
f 39//67 69//67 71//67
f 37//68 44//68 67//68
f 42//69 72//69 62//69
f 47//70 38//70 62//70
f 42//71 43//71 73//71
f 48//72 45//72 64//72
f 47//73 66//73 65//73
f 41//74 71//74 70//74
