# Blender 3.5.1
# www.blender.org
mtllib nave02.mtl
o Cube
v 1.735903 0.089440 1.000000
v 1.735903 0.989090 1.000000
v 0.512889 -0.457065 -6.817823
v 1.735903 0.089440 -1.000000
v 1.735903 0.846126 -1.000000
v 0.862803 -2.108029 -3.309309
v 0.510337 1.600394 -1.776260
v 5.121377 -1.162409 1.140213
v 5.121377 -0.548930 1.140213
v 5.121377 -0.548930 -0.042395
v 5.121377 -1.162409 -0.042395
v 0.510338 -1.628097 0.932977
v 1.304573 -1.628097 0.932977
v 1.304573 -1.087847 -3.569640
v 1.304573 -1.628097 -1.067023
v 0.510337 -1.087847 -4.843493
v 0.510337 -1.628097 -1.067023
v 0.878646 -2.270265 -1.691703
v 0.510337 -2.107352 -3.303672
v 0.510337 -2.269588 -1.686065
v 0.510338 -1.185557 5.020009
v 1.735904 0.154385 5.020009
v 1.735904 0.966204 5.020009
v 0.510338 1.250332 5.020009
v 0.510338 -1.602757 4.621933
v 1.449402 -1.152843 4.621933
v 1.304573 -1.703434 2.349010
v 0.510338 1.360553 2.949132
v 0.510338 -1.703434 2.349010
v 1.735904 0.979798 2.949132
v 1.735904 0.264605 2.853153
v 6.083006 1.130752 6.343257
v 6.083006 1.607043 6.343257
v 6.083006 1.610052 5.621053
v 6.083006 1.155149 5.621053
v 0.510337 1.730653 -0.742478
v 1.209967 1.718821 -0.391081
v 1.559559 1.550347 0.966480
v 1.259306 1.621864 2.358655
v 1.068112 2.630486 1.677943
v 0.510337 2.012259 -0.602548
v 0.510338 1.921810 2.678102
v 1.018773 2.070418 -0.251152
v 1.368364 2.556958 0.736404
v 0.510338 2.907021 0.736404
v 0.510338 2.847995 1.997389
v 0.510338 -0.765609 5.020009
v 1.318300 0.194613 5.020009
v 1.318300 0.776375 5.020009
v 0.510338 0.979985 5.020009
v 0.510338 -0.460472 4.615949
v 1.167174 0.223843 4.615949
v 1.167174 0.638444 4.615949
v 0.510338 0.783549 4.615949
v -0.000000 -0.457582 -6.813412
v -0.000000 1.600394 -1.776260
v 0.000000 -1.628097 0.932977
v -0.000000 -1.087847 -4.843493
v -0.000000 -1.628097 -1.067023
v -0.000000 -2.107352 -3.303672
v -0.000000 -2.269588 -1.686065
v 0.000000 -1.185557 5.020009
v 0.000000 1.250332 5.020009
v 0.000000 -1.602757 4.621933
v 0.000000 1.360553 2.949132
v 0.000000 -1.703434 2.349010
v -0.000000 1.730653 -0.742478
v -0.000000 2.012259 -0.602548
v 0.000000 1.921810 2.678102
v 0.000000 2.907021 0.736404
v 0.000000 2.847995 1.997389
v 0.000000 -0.765609 5.020009
v 0.000000 0.979985 5.020009
v 0.000000 -0.460472 4.615949
v 0.000000 0.783549 4.615949
v 0.510337 1.245571 -4.204089
v 1.562955 0.491303 -3.048730
v 1.304573 -1.357972 -2.318331
v 0.870724 -2.189147 -2.500506
v 0.510337 -2.188470 -2.494869
v -0.000000 1.245571 -4.204089
v -0.000000 -2.188470 -2.494869
v 1.379902 0.130796 -5.104765
v 0.518363 0.898098 -6.638885
v 1.377992 -0.462439 -5.105709
v -0.000000 0.892117 -6.636308
v 1.553647 -0.188291 -3.046918
v -1.735903 0.089440 1.000000
v -1.735903 0.989090 1.000000
v -0.512889 -0.457065 -6.817823
v -1.735903 0.089440 -1.000000
v -1.735903 0.846126 -1.000000
v -0.862803 -2.108029 -3.309309
v -0.510338 1.600394 -1.776260
v -5.121377 -1.162409 1.140214
v -5.121377 -0.548930 1.140214
v -5.121377 -0.548930 -0.042395
v -5.121377 -1.162409 -0.042395
v -0.510337 -1.628097 0.932977
v -1.304573 -1.628097 0.932977
v -1.304573 -1.087847 -3.569640
v -1.304573 -1.628097 -1.067023
v -0.510338 -1.087847 -4.843493
v -0.510338 -1.628097 -1.067023
v -0.878646 -2.270265 -1.691703
v -0.510338 -2.107352 -3.303672
v -0.510338 -2.269588 -1.686065
v -0.510337 -1.185557 5.020009
v -1.735903 0.154385 5.020009
v -1.735903 0.966204 5.020009
v -0.510337 1.250332 5.020009
v -0.510337 -1.602757 4.621933
v -1.449401 -1.152843 4.621933
v -1.304573 -1.703434 2.349010
v -0.510337 1.360553 2.949132
v -0.510337 -1.703434 2.349010
v -1.735903 0.979798 2.949132
v -1.735903 0.264605 2.853153
v -6.083005 1.130752 6.343258
v -6.083005 1.607043 6.343258
v -6.083005 1.610052 5.621054
v -6.083005 1.155149 5.621054
v -0.510338 1.730653 -0.742478
v -1.209967 1.718821 -0.391081
v -1.559559 1.550347 0.966480
v -1.259306 1.621864 2.358655
v -1.068112 2.630486 1.677943
v -0.510337 2.012259 -0.602548
v -0.510337 1.921810 2.678102
v -1.018773 2.070418 -0.251152
v -1.368364 2.556958 0.736404
v -0.510337 2.907021 0.736404
v -0.510337 2.847995 1.997389
v -0.510337 -0.765609 5.020009
v -1.318300 0.194613 5.020009
v -1.318300 0.776375 5.020009
v -0.510337 0.979985 5.020009
v -0.510337 -0.460472 4.615949
v -1.167173 0.223843 4.615949
v -1.167173 0.638444 4.615949
v -0.510337 0.783549 4.615949
v -0.510338 1.245571 -4.204089
v -1.562955 0.491303 -3.048730
v -1.304573 -1.357972 -2.318331
v -0.870725 -2.189147 -2.500506
v -0.510338 -2.188470 -2.494869
v -1.379902 0.130796 -5.104765
v -0.518363 0.898098 -6.638885
v -1.377992 -0.462439 -5.105709
v -1.553647 -0.188291 -3.046918
vn -0.3468 -0.9379 -0.0000
vn 1.0000 -0.0000 -0.0000
vn 0.9693 -0.2399 -0.0538
vn -0.0414 -0.0000 0.9991
vn 0.5113 -0.8188 -0.2609
vn 0.5169 0.1139 -0.8484
vn 0.3959 0.9159 -0.0655
vn 0.2722 -0.0000 -0.9622
vn 0.6629 -0.6243 -0.4133
vn -0.0000 -1.0000 -0.0000
vn 0.9699 -0.2436 -0.0000
vn -0.0000 -0.9990 0.0443
vn -0.0035 -0.9950 -0.0998
vn 0.8900 -0.4527 -0.0541
vn -0.0000 -0.6973 0.7168
vn -0.0000 -0.0000 1.0000
vn 0.3766 -0.3444 0.8600
vn 0.9773 -0.2114 -0.0111
vn 0.2258 0.9741 0.0064
vn 0.9699 -0.2431 -0.0129
vn -0.0000 -0.9986 -0.0531
vn 0.2285 -0.9730 -0.0329
vn -0.2912 -0.0000 0.9567
vn -0.1474 0.9891 0.0065
vn 0.3431 0.6677 -0.6606
vn 0.8017 0.5977 0.0028
vn 0.4874 0.3797 0.7863
vn 0.9370 0.2821 -0.2063
vn 0.9347 0.3027 0.1860
vn 0.5693 0.4869 0.6625
vn 0.2775 0.7988 -0.5338
vn 0.3773 0.9248 0.0481
vn 0.9239 0.0905 -0.3717
vn 0.4409 0.5285 -0.7255
vn -0.9366 -0.0000 0.3503
vn -0.2251 -0.8933 0.3891
vn -0.6881 0.5790 0.4373
vn -0.0017 -0.9526 -0.3043
vn -0.0000 0.8314 -0.5556
vn -0.0000 0.9989 0.0468
vn -0.0000 -0.6903 0.7235
vn -0.0000 0.4450 -0.8955
vn -0.0000 -0.9950 -0.0998
vn -0.0000 0.4349 0.9005
vn -0.0000 0.9986 0.0531
vn -0.0000 0.9922 -0.1250
vn -0.0000 -0.6944 0.7196
vn -0.0000 -0.8338 -0.5521
vn -0.0000 0.5922 0.8058
vn -0.0000 -0.8994 0.4372
vn -0.0000 0.7980 0.6026
vn -0.0000 0.9895 -0.1446
vn 0.9054 -0.4149 -0.0896
vn -0.0034 -0.9950 -0.0998
vn 0.6554 0.7473 -0.1092
vn 0.9965 -0.0000 -0.0841
vn 0.9697 -0.2389 -0.0509
vn 0.9962 -0.0139 -0.0863
vn 0.7481 0.6573 -0.0913
vn 0.8925 -0.0022 -0.4510
vn -0.0064 0.1309 -0.9914
vn -0.0000 0.9896 -0.1438
vn 0.3468 -0.9379 -0.0000
vn -1.0000 -0.0000 -0.0000
vn -0.9693 -0.2399 -0.0538
vn 0.0414 -0.0000 0.9991
vn -0.5113 -0.8188 -0.2609
vn -0.5169 0.1139 -0.8484
vn -0.3959 0.9159 -0.0655
vn -0.2722 -0.0000 -0.9622
vn -0.6629 -0.6243 -0.4133
vn -0.9699 -0.2436 -0.0000
vn 0.0034 -0.9950 -0.0998
vn -0.8722 -0.4781 -0.1032
vn -0.3766 -0.3444 0.8600
vn -0.9773 -0.2114 -0.0111
vn -0.2963 0.9537 0.0508
vn -0.9699 -0.2431 -0.0129
vn -0.2306 -0.9718 -0.0494
vn 0.2912 -0.0000 0.9567
vn 0.1474 0.9891 0.0065
vn -0.5678 0.8167 -0.1029
vn -0.8017 0.5977 0.0028
vn -0.2318 0.7461 0.6242
vn -0.8438 0.5352 -0.0383
vn -0.9347 0.3027 0.1860
vn -0.5041 0.5468 0.6685
vn -0.2775 0.7988 -0.5338
vn -0.3773 0.9248 0.0481
vn -0.8415 0.5183 -0.1524
vn -0.4159 0.4047 -0.8144
vn 0.9366 -0.0000 0.3503
vn 0.2251 -0.8933 0.3891
vn 0.6881 0.5790 0.4373
vn 0.0017 -0.9526 -0.3043
vn -0.9054 -0.4149 -0.0896
vn -0.5976 0.7800 -0.1855
vn -0.9965 -0.0000 -0.0841
vn -0.9697 -0.2389 -0.0509
vn -0.9962 -0.0139 -0.0863
vn -0.6977 0.6925 -0.1835
vn -0.8826 0.0580 -0.4666
vn 0.0064 0.1309 -0.9914
vn 0.0121 0.9899 -0.1413
vn 0.9690 -0.2413 -0.0521
vn 0.4934 -0.8136 -0.3077
vn 0.5236 -0.0000 -0.8519
vn 0.4136 0.9105 -0.0000
vn -0.0160 -0.2407 -0.9705
vn 0.4244 -0.8858 0.1875
vn 0.8722 -0.4781 -0.1032
vn 0.0097 -0.6944 0.7196
vn 0.3140 -0.6554 0.6869
vn 0.9774 -0.2110 -0.0107
vn 0.2963 0.9537 0.0508
vn 0.9755 -0.2191 0.0207
vn 0.2306 -0.9718 -0.0494
vn -0.1471 0.9891 0.0041
vn 0.5678 0.8167 -0.1029
vn 0.9342 0.3046 0.1858
vn 0.2318 0.7461 0.6242
vn 0.8438 0.5352 -0.0383
vn 0.9301 0.2402 0.2779
vn 0.5041 0.5468 0.6685
vn 0.3254 0.7975 -0.5081
vn 0.3843 0.9222 0.0432
vn 0.8415 0.5183 -0.1524
vn 0.4159 0.4047 -0.8144
vn -0.1949 -0.8821 0.4288
vn -0.6871 0.6595 0.3047
vn -0.0000 -0.9524 -0.3047
vn 0.5976 0.7800 -0.1855
vn 0.9961 -0.0139 -0.0868
vn 0.9698 -0.2386 -0.0515
vn 0.9964 -0.0031 -0.0846
vn 0.6977 0.6925 -0.1835
vn 0.8826 0.0580 -0.4666
vn -0.0087 0.1301 -0.9915
vn -0.0121 0.9899 -0.1413
vn -0.9690 -0.2413 -0.0521
vn -0.4934 -0.8136 -0.3077
vn -0.5236 -0.0000 -0.8519
vn -0.4136 0.9105 -0.0000
vn 0.0160 -0.2407 -0.9705
vn -0.4244 -0.8858 0.1875
vn 0.0035 -0.9950 -0.0998
vn -0.8900 -0.4527 -0.0541
vn -0.0097 -0.6944 0.7196
vn -0.3140 -0.6554 0.6869
vn -0.9774 -0.2110 -0.0107
vn -0.2258 0.9741 0.0064
vn -0.9755 -0.2191 0.0207
vn -0.2285 -0.9730 -0.0329
vn 0.1471 0.9891 0.0041
vn -0.3431 0.6677 -0.6606
vn -0.9342 0.3046 0.1858
vn -0.4874 0.3797 0.7863
vn -0.9370 0.2821 -0.2063
vn -0.9301 0.2402 0.2779
vn -0.5693 0.4869 0.6625
vn -0.3254 0.7975 -0.5081
vn -0.3843 0.9222 0.0432
vn -0.9239 0.0905 -0.3717
vn -0.4409 0.5285 -0.7255
vn 0.1949 -0.8821 0.4288
vn 0.6871 0.6595 0.3047
vn -0.6554 0.7473 -0.1092
vn -0.9961 -0.0139 -0.0868
vn -0.9698 -0.2386 -0.0515
vn -0.9964 -0.0031 -0.0846
vn -0.7481 0.6573 -0.0913
vn -0.8925 -0.0022 -0.4510
vn 0.0087 0.1301 -0.9915
s 0
usemtl Material.001
f 1//1 11//1 8//1
f 10//2 8//2 11//2
f 4//3 78//3 87//3
f 1//4 9//4 2//4
f 85//5 16//5 3//5
f 30//6 35//6 31//6
f 2//7 10//7 5//7
f 4//8 10//8 11//8
f 14//9 19//9 16//9
f 17//10 13//10 12//10
f 4//11 13//11 15//11
f 27//12 25//12 29//12
f 79//13 19//13 6//13
f 78//14 18//14 79//14
f 17//15 18//15 15//15
f 22//16 49//16 48//16
f 21//17 26//17 22//17
f 31//18 26//18 27//18
f 30//19 24//19 23//19
f 1//20 27//20 13//20
f 13//21 29//21 12//21
f 2//2 31//2 1//2
f 35//2 33//2 32//2
f 22//22 35//22 32//22
f 23//23 32//23 33//23
f 23//24 34//24 30//24
f 5//25 36//25 37//25
f 2//26 39//26 30//26
f 28//27 39//27 42//27
f 2//28 37//28 38//28
f 48//35 53//35 52//35
f 24//16 49//16 23//16
f 22//16 47//16 21//16
f 50//36 53//36 49//36
f 48//37 51//37 47//37
f 16//38 55//38 3//38
f 21//41 64//41 25//41
f 20//43 82//43 80//43
f 25//12 66//12 29//12
f 12//10 59//10 17//10
f 42//44 65//44 28//44
f 24//16 73//16 50//16
f 28//45 63//45 24//45
f 7//46 67//46 36//46
f 17//47 61//47 20//47
f 19//48 58//48 16//48
f 50//50 75//50 54//50
f 29//21 57//21 12//21
f 51//51 72//51 47//51
f 47//16 62//16 21//16
f 76//52 56//52 7//52
f 80//43 60//43 19//43
f 78//53 6//53 14//53
f 18//54 80//54 79//54
f 7//55 77//55 76//55
f 4//56 77//56 5//56
f 87//57 14//57 85//57
f 87//58 83//58 77//58
f 76//59 83//59 84//59
f 3//60 83//60 85//60
f 3//61 86//61 84//61
f 76//62 86//62 81//62
f 88//63 98//63 91//63
f 95//64 97//64 98//64
f 144//65 91//65 150//65
f 96//66 88//66 89//66
f 103//67 149//67 90//67
f 122//68 117//68 118//68
f 97//69 89//69 92//69
f 91//70 97//70 92//70
f 106//71 101//71 103//71
f 100//10 104//10 99//10
f 91//72 100//72 88//72
f 112//12 114//12 116//12
f 145//73 106//73 146//73
f 144//74 105//74 102//74
f 105//15 104//15 102//15
f 109//16 136//16 110//16
f 113//75 108//75 109//75
f 113//76 118//76 114//76
f 117//77 111//77 115//77
f 114//78 88//78 100//78
f 116//21 100//21 99//21
f 118//64 89//64 88//64
f 122//64 120//64 121//64
f 109//79 122//79 118//79
f 110//80 119//80 109//80
f 121//81 110//81 117//81
f 92//82 123//82 94//82
f 126//83 89//83 117//83
f 115//84 126//84 117//84
f 89//85 124//85 92//85
f 135//92 140//92 136//92
f 136//16 111//16 110//16
f 134//16 109//16 108//16
f 140//93 137//93 136//93
f 138//94 135//94 134//94
f 55//95 103//95 90//95
f 64//41 108//41 112//41
f 82//43 107//43 146//43
f 66//12 112//12 116//12
f 59//10 99//10 104//10
f 65//44 129//44 115//44
f 73//16 111//16 137//16
f 63//45 115//45 111//45
f 67//46 94//46 123//46
f 61//47 104//47 107//47
f 58//48 106//48 103//48
f 75//50 137//50 141//50
f 57//21 116//21 99//21
f 72//51 138//51 134//51
f 62//16 134//16 108//16
f 56//52 142//52 94//52
f 60//43 146//43 106//43
f 93//96 144//96 101//96
f 105//73 146//73 107//73
f 94//97 143//97 92//97
f 143//98 91//98 92//98
f 101//99 150//99 149//99
f 147//100 150//100 143//100
f 142//101 147//101 143//101
f 90//102 147//102 148//102
f 86//103 90//103 148//103
f 142//104 86//104 148//104
f 1//1 4//1 11//1
f 10//2 9//2 8//2
f 4//105 15//105 78//105
f 1//4 8//4 9//4
f 85//106 14//106 16//106
f 30//107 34//107 35//107
f 2//108 9//108 10//108
f 4//8 5//8 10//8
f 14//109 6//109 19//109
f 17//10 15//10 13//10
f 4//11 1//11 13//11
f 27//110 26//110 25//110
f 79//54 80//54 19//54
f 78//111 15//111 18//111
f 17//112 20//112 18//112
f 22//16 23//16 49//16
f 21//113 25//113 26//113
f 31//114 22//114 26//114
f 30//115 28//115 24//115
f 1//116 31//116 27//116
f 13//21 27//21 29//21
f 2//2 30//2 31//2
f 35//2 34//2 33//2
f 22//117 31//117 35//117
f 23//23 22//23 32//23
f 23//118 33//118 34//118
f 5//119 7//119 36//119
f 2//120 38//120 39//120
f 28//121 30//121 39//121
f 2//122 5//122 37//122
f 48//35 49//35 53//35
f 24//16 50//16 49//16
f 22//16 48//16 47//16
f 50//129 54//129 53//129
f 48//130 52//130 51//130
f 16//131 58//131 55//131
f 21//41 62//41 64//41
f 20//43 61//43 82//43
f 25//12 64//12 66//12
f 12//10 57//10 59//10
f 42//44 69//44 65//44
f 24//16 63//16 73//16
f 28//45 65//45 63//45
f 7//46 56//46 67//46
f 17//47 59//47 61//47
f 19//48 60//48 58//48
f 50//50 73//50 75//50
f 29//21 66//21 57//21
f 51//51 74//51 72//51
f 47//16 72//16 62//16
f 76//52 81//52 56//52
f 80//43 82//43 60//43
f 78//14 79//14 6//14
f 18//54 20//54 80//54
f 7//132 5//132 77//132
f 4//133 87//133 77//133
f 87//134 78//134 14//134
f 87//135 85//135 83//135
f 76//136 77//136 83//136
f 3//137 84//137 83//137
f 3//138 55//138 86//138
f 76//139 84//139 86//139
f 88//63 95//63 98//63
f 95//64 96//64 97//64
f 144//140 102//140 91//140
f 96//66 95//66 88//66
f 103//141 101//141 149//141
f 122//142 121//142 117//142
f 97//143 96//143 89//143
f 91//70 98//70 97//70
f 106//144 93//144 101//144
f 100//10 102//10 104//10
f 91//72 102//72 100//72
f 112//145 113//145 114//145
f 145//146 93//146 106//146
f 144//147 145//147 105//147
f 105//148 107//148 104//148
f 109//16 135//16 136//16
f 113//149 112//149 108//149
f 113//150 109//150 118//150
f 117//151 110//151 111//151
f 114//152 118//152 88//152
f 116//21 114//21 100//21
f 118//64 117//64 89//64
f 122//64 119//64 120//64
f 109//153 119//153 122//153
f 110//80 120//80 119//80
f 121//154 120//154 110//154
f 92//155 124//155 123//155
f 126//156 125//156 89//156
f 115//157 129//157 126//157
f 89//158 125//158 124//158
f 135//92 139//92 140//92
f 136//16 137//16 111//16
f 134//16 135//16 109//16
f 140//165 141//165 137//165
f 138//166 139//166 135//166
f 55//131 58//131 103//131
f 64//41 62//41 108//41
f 82//43 61//43 107//43
f 66//12 64//12 112//12
f 59//10 57//10 99//10
f 65//44 69//44 129//44
f 73//16 63//16 111//16
f 63//45 65//45 115//45
f 67//46 56//46 94//46
f 61//47 59//47 104//47
f 58//48 60//48 106//48
f 75//50 73//50 137//50
f 57//21 66//21 116//21
f 72//51 74//51 138//51
f 62//16 72//16 134//16
f 56//52 81//52 142//52
f 60//43 82//43 146//43
f 93//147 145//147 144//147
f 105//73 145//73 146//73
f 94//167 142//167 143//167
f 143//168 150//168 91//168
f 101//169 144//169 150//169
f 147//170 149//170 150//170
f 142//171 148//171 147//171
f 90//172 149//172 147//172
f 86//173 55//173 90//173
f 142//62 81//62 86//62
usemtl Material.002
f 38//29 40//29 39//29
f 42//30 40//30 46//30
f 45//31 43//31 41//31
f 45//32 40//32 44//32
f 38//33 43//33 44//33
f 37//34 41//34 43//34
f 41//39 70//39 45//39
f 45//40 71//40 46//40
f 36//42 68//42 41//42
f 46//49 69//49 42//49
f 127//86 125//86 126//86
f 129//87 127//87 126//87
f 130//88 132//88 128//88
f 127//89 132//89 131//89
f 125//90 130//90 124//90
f 124//91 128//91 123//91
f 70//39 128//39 132//39
f 71//40 132//40 133//40
f 68//42 123//42 128//42
f 69//49 133//49 129//49
f 38//123 44//123 40//123
f 42//124 39//124 40//124
f 45//125 44//125 43//125
f 45//126 46//126 40//126
f 38//127 37//127 43//127
f 37//128 36//128 41//128
f 41//39 68//39 70//39
f 45//40 70//40 71//40
f 36//42 67//42 68//42
f 46//49 71//49 69//49
f 127//159 131//159 125//159
f 129//160 133//160 127//160
f 130//161 131//161 132//161
f 127//162 133//162 132//162
f 125//163 131//163 130//163
f 124//164 130//164 128//164
f 70//39 68//39 128//39
f 71//40 70//40 132//40
f 68//42 67//42 123//42
f 69//49 71//49 133//49
usemtl Material.004
f 52//16 54//16 51//16
f 54//16 74//16 51//16
f 139//16 141//16 140//16
f 74//16 141//16 138//16
f 52//16 53//16 54//16
f 54//16 75//16 74//16
f 139//16 138//16 141//16
f 74//16 75//16 141//16
